:SAMPLES-PER-SECOND 30
:FULLY-SPECIFIED
:DEGREES
511
root  3.38621 40.9908 -8.01496 -127.709 -87.1717 127.394
RightUpLeg  2.55224 -8.67701 -5.57436
RightLeg  5.91586 -2.18929 3.56086
RightFoot  -5.13646 0.124412 -2.88024
RightToes  0.00048216 0.542163 -0.142577
Spine  5.73559 -0.301508 0.977453
Spine1  0.401209 0.0487516 -1.12257
HEad  -11.1811 -10.0201 -0.010371
LeftShoulder1  0.909508 -1.79273 -9.75455
LeftArm  -19.2883 17.5408 -8.91388
LeftForeArm  3.85432 -2.75787 -0.510496
LeftHand  -0.25398 0.0180481 5.50724
RightShoulder  0.820545 1.28376 9.84223
RightArm  -21.3586 -6.15258 0.146008
RightForeArm  -14.1625 3.67075 3.4867
RightHand  -2.2577 6.30144 -22.5353
LeftUpLeg  3.85634 4.15957 2.46686
LeftLeg  -1.17183 13.1526 -3.88914
LeftFoot  -1.15552 0.163431 -1.75632
LeftToes  1.06246e-005 4.65856e-005 -8.18501e-006
512
root  3.34328 40.9806 -7.95072 -136.298 -86.7892 135.772
RightUpLeg  2.73348 -8.63989 -5.66345
RightLeg  5.99967 -1.66623 3.47166
RightFoot  -5.24992 0.123501 -2.8464
RightToes  0.00048216 0.542163 -0.142577
Spine  5.34105 -0.284641 0.653147
Spine1  0.670173 0.0283331 -0.956174
HEad  -10.9002 -9.54582 -0.343117
LeftShoulder1  0.838485 -1.4833 -9.34731
LeftArm  -19.9385 18.1988 -8.48644
LeftForeArm  2.82813 -3.41029 -0.27414
LeftHand  -0.25398 0.0180481 5.50724
RightShoulder  0.790762 1.18363 9.54298
RightArm  -21.4577 -6.06649 0.182486
RightForeArm  -15.0227 3.75358 3.53099
RightHand  -2.31744 6.36283 -22.9929
LeftUpLeg  4.22815 4.20968 2.41137
LeftLeg  -1.13757 13.633 -3.93371
LeftFoot  -1.36891 0.159944 -1.73811
LeftToes  1.06246e-005 4.65856e-005 -8.18501e-006
513
root  3.30797 40.9747 -7.89594 -141.266 -86.5491 140.551
RightUpLeg  3.03856 -8.55433 -5.68398
RightLeg  5.82053 -1.39505 3.39238
RightFoot  -5.30369 0.123059 -2.83504
RightToes  0.00048216 0.542163 -0.142577
Spine  5.00388 -0.327255 0.349914
Spine1  0.859243 -0.0512368 -0.833988
HEad  -10.6017 -9.16146 -0.628678
LeftShoulder1  0.785367 -1.24004 -9.05179
LeftArm  -20.6238 18.6926 -8.08933
LeftForeArm  2.88392 -4.27487 -0.0560726
LeftHand  -0.25398 0.0180481 5.50724
RightShoulder  0.792305 1.17783 9.60175
RightArm  -20.9357 -6.03626 0.153799
RightForeArm  -14.6228 3.91115 3.69768
RightHand  -2.24135 6.09249 -22.7631
LeftUpLeg  4.58824 4.22727 2.36957
LeftLeg  -1.22196 13.9687 -3.93485
LeftFoot  -1.60851 0.158997 -1.74998
LeftToes  1.06246e-005 4.65856e-005 -8.18501e-006
514
root  3.28732 40.9742 -7.85197 -143.388 -86.4547 142.522
RightUpLeg  3.36799 -8.49582 -5.70857
RightLeg  5.52176 -1.29241 3.34417
RightFoot  -5.29082 0.122112 -2.82529
RightToes  0.00048216 0.542163 -0.142577
Spine  4.69928 -0.384506 0.039479
Spine1  1.0152 -0.138956 -0.747036
HEad  -10.1894 -9.01966 -0.776396
LeftShoulder1  0.735418 -1.03462 -8.65596
LeftArm  -21.0234 18.807 -8.01325
LeftForeArm  3.55325 -4.82998 0.0399337
LeftHand  -0.25398 0.0180481 5.50724
RightShoulder  0.815725 1.24093 9.90169
RightArm  -20.117 -6.15583 0.18322
RightForeArm  -12.4248 3.92191 3.79304
RightHand  -2.14734 5.91117 -22.1821
LeftUpLeg  4.84745 4.18182 2.29452
LeftLeg  -1.31758 14.1851 -3.88378
LeftFoot  -1.70687 0.157582 -1.7494
LeftToes  1.06246e-005 4.65856e-005 -8.18501e-006
515
root  3.28251 40.9736 -7.81818 -143.534 -86.4593 142.598
RightUpLeg  3.53783 -8.49909 -5.75692
RightLeg  5.35623 -1.28076 3.32263
RightFoot  -5.27208 0.118291 -2.77452
RightToes  0.00048216 0.542163 -0.142577
Spine  4.36371 -0.409378 -0.382007
Spine1  1.19837 -0.223718 -0.465969
HEad  -9.78071 -9.02951 -0.898401
LeftShoulder1  0.707252 -0.928393 -8.37885
LeftArm  -20.923 18.5014 -8.07274
LeftForeArm  4.08222 -4.75184 -0.018366
LeftHand  -0.25398 0.0180481 5.50724
RightShoulder  0.830565 1.26908 10.1354
RightArm  -19.6011 -6.38591 0.524809
RightForeArm  -9.28471 3.69663 3.67949
RightHand  -2.10233 5.96829 -21.6318
LeftUpLeg  4.9067 4.13957 2.23071
LeftLeg  -1.27129 14.2295 -3.83782
LeftFoot  -1.70518 0.155173 -1.7316
LeftToes  1.06246e-005 4.65856e-005 -8.18501e-006
516
root  3.28651 40.9733 -7.78344 -144.029 -86.495 143.061
RightUpLeg  3.59337 -8.51462 -5.77798
RightLeg  5.30693 -1.26615 3.32793
RightFoot  -5.24257 0.111822 -2.68052
RightToes  0.00048216 0.542163 -0.142577
Spine  4.07898 -0.38314 -0.762639
Spine1  1.33872 -0.278487 -0.0546453
HEad  -9.50396 -8.98222 -1.13915
LeftShoulder1  0.718182 -0.995408 -8.3858
LeftArm  -20.358 17.9958 -8.01773
LeftForeArm  4.35728 -4.15094 -0.188384
LeftHand  -0.25398 0.0180481 5.50724
RightShoulder  0.841358 1.28877 10.3059
RightArm  -19.4215 -6.61435 0.970825
RightForeArm  -6.74933 3.26353 3.46924
RightHand  -2.04706 5.93821 -21.1375
LeftUpLeg  4.85323 4.18425 2.25463
LeftLeg  -1.09146 14.16 -3.83345
LeftFoot  -1.78785 0.150992 -1.68793
LeftToes  1.06246e-005 4.65856e-005 -8.18501e-006
517
root  3.29461 40.9738 -7.7363 -145.972 -86.4972 144.928
RightUpLeg  3.69083 -8.51125 -5.77892
RightLeg  5.23742 -1.17365 3.34986
RightFoot  -5.17354 0.106468 -2.59617
RightToes  0.00048216 0.542163 -0.142577
Spine  3.97427 -0.323869 -0.962762
Spine1  1.36098 -0.289135 0.28095
HEad  -9.30933 -8.79517 -1.48353
LeftShoulder1  0.747559 -1.16756 -8.43797
LeftArm  -19.6847 17.6081 -8.03137
LeftForeArm  4.64617 -3.44497 -0.374014
LeftHand  -0.25398 0.0180481 5.50724
RightShoulder  0.874759 1.41162 10.5735
RightArm  -19.2099 -6.81059 1.14802
RightForeArm  -5.60439 2.79649 3.35786
RightHand  -1.96177 5.68238 -20.7367
LeftUpLeg  4.86142 4.27366 2.3171
LeftLeg  -0.934067 14.1392 -3.84553
LeftFoot  -1.93291 0.144453 -1.61321
LeftToes  1.06246e-005 4.65856e-005 -8.18501e-006
518
root  3.30896 40.9758 -7.68025 -147.82 -86.4277 146.668
RightUpLeg  3.80356 -8.5227 -5.83779
RightLeg  5.17585 -1.00532 3.35566
RightFoot  -5.09846 0.104282 -2.54754
RightToes  0.00048216 0.542163 -0.142577
Spine  3.9843 -0.255991 -1.1459
Spine1  1.36336 -0.287943 0.594931
HEad  -9.14576 -8.4787 -1.79498
LeftShoulder1  0.7639 -1.28996 -8.36642
LeftArm  -19.2865 17.4388 -8.30644
LeftForeArm  5.00926 -2.99906 -0.487803
LeftHand  -0.25398 0.0180481 5.50724
RightShoulder  0.918113 1.58757 10.8387
RightArm  -18.9398 -6.97517 1.14325
RightForeArm  -5.27101 2.51251 3.35134
RightHand  -1.92028 5.52508 -20.5925
LeftUpLeg  4.97233 4.29505 2.28961
LeftLeg  -0.940803 14.2481 -3.86365
LeftFoot  -1.97163 0.136655 -1.52427
LeftToes  1.06246e-005 4.65856e-005 -8.18501e-006
519
root  3.32908 40.978 -7.62632 -148.446 -86.2983 147.246
RightUpLeg  3.79116 -8.56434 -5.96289
RightLeg  5.1949 -0.815625 3.33043
RightFoot  -5.05372 0.103544 -2.5039
RightToes  0.00048216 0.542163 -0.142577
Spine  3.8784 -0.193504 -1.44248
Spine1  1.53119 -0.300949 0.979648
HEad  -9.12673 -7.96375 -1.98165
LeftShoulder1  0.765765 -1.30483 -8.35546
LeftArm  -19.1911 17.3509 -8.59398
LeftForeArm  5.29547 -2.89449 -0.533919
LeftHand  -0.25398 0.0180481 5.50724
RightShoulder  0.933698 1.64671 10.9447
RightArm  -18.8958 -7.01661 1.25096
RightForeArm  -4.79222 2.46733 3.32109
RightHand  -1.94287 5.6437 -20.6128
LeftUpLeg  5.07532 4.22887 2.1502
LeftLeg  -1.09797 14.445 -3.90885
LeftFoot  -1.90181 0.129082 -1.43279
LeftToes  1.06246e-005 4.65856e-005 -8.18501e-006
520
root  3.34763 40.9808 -7.57512 -148.889 -86.1561 147.735
RightUpLeg  3.66741 -8.59781 -6.07179
RightLeg  5.2128 -0.647869 3.3021
RightFoot  -5.00193 0.102388 -2.44462
RightToes  0.00048216 0.542163 -0.142577
Spine  3.56692 -0.161746 -1.64342
Spine1  1.87285 -0.31247 1.21383
HEad  -9.29104 -7.21323 -2.03917
LeftShoulder1  0.763175 -1.25807 -8.46714
LeftArm  -19.1853 17.2499 -8.63802
LeftForeArm  5.44104 -2.97821 -0.564818
LeftHand  -0.25398 0.0180481 5.50724
RightShoulder  0.926587 1.58733 11.024
RightArm  -19.0677 -6.87594 1.41458
RightForeArm  -4.08972 2.552 3.25316
RightHand  -1.94209 5.70088 -20.5034
LeftUpLeg  5.08711 4.15357 1.99999
LeftLeg  -1.27205 14.6625 -3.97022
LeftFoot  -1.85195 0.120789 -1.3279
LeftToes  1.06246e-005 4.65856e-005 -8.18501e-006
